<mxfile host="app.diagrams.net" agent="Mozilla/5.0 (Windows NT 10.0; Win64; x64) AppleWebKit/537.36 (KHTML, like Gecko) Chrome/130.0.0.0 Safari/537.36" version="24.8.6">
  <diagram name="Página-1" id="6Y7BRsBwV7AE-Fat2NN-">
    <mxGraphModel dx="1444" dy="825" grid="0" gridSize="10" guides="1" tooltips="1" connect="1" arrows="1" fold="1" page="0" pageScale="1" pageWidth="827" pageHeight="1169" math="0" shadow="0">
      <root>
        <mxCell id="0" />
        <mxCell id="1" parent="0" />
        <mxCell id="0rnSWCQlwUZsOfia6lN0-42" value="" style="rounded=1;whiteSpace=wrap;html=1;arcSize=50;rotation=90;verticalAlign=bottom;" parent="1" vertex="1">
          <mxGeometry x="667.5" y="347.5" width="145" height="30" as="geometry" />
        </mxCell>
        <mxCell id="0rnSWCQlwUZsOfia6lN0-1" value="Año" style="swimlane;fontStyle=0;childLayout=stackLayout;horizontal=1;startSize=30;horizontalStack=0;resizeParent=1;resizeParentMax=0;resizeLast=0;collapsible=1;marginBottom=0;whiteSpace=wrap;html=1;" parent="1" vertex="1">
          <mxGeometry x="70" y="360" width="140" height="60" as="geometry" />
        </mxCell>
        <mxCell id="0rnSWCQlwUZsOfia6lN0-2" value="&lt;u&gt;AñoID&lt;/u&gt;" style="text;strokeColor=none;fillColor=none;align=left;verticalAlign=middle;spacingLeft=4;spacingRight=4;overflow=hidden;points=[[0,0.5],[1,0.5]];portConstraint=eastwest;rotatable=0;whiteSpace=wrap;html=1;" parent="0rnSWCQlwUZsOfia6lN0-1" vertex="1">
          <mxGeometry y="30" width="140" height="30" as="geometry" />
        </mxCell>
        <mxCell id="0rnSWCQlwUZsOfia6lN0-5" value="" style="verticalAlign=top;align=left;spacingTop=8;spacingLeft=2;spacingRight=12;shape=cube;size=10;direction=south;fontStyle=4;html=1;whiteSpace=wrap;" parent="1" vertex="1">
          <mxGeometry x="320" y="330" width="180" height="130" as="geometry" />
        </mxCell>
        <mxCell id="0rnSWCQlwUZsOfia6lN0-6" value="Cantidad" style="text;whiteSpace=wrap;html=1;" parent="1" vertex="1">
          <mxGeometry x="320" y="390" width="170" height="20" as="geometry" />
        </mxCell>
        <mxCell id="0rnSWCQlwUZsOfia6lN0-7" value="Tasa de infusión" style="text;whiteSpace=wrap;html=1;" parent="1" vertex="1">
          <mxGeometry x="320" y="410" width="170" height="20" as="geometry" />
        </mxCell>
        <mxCell id="0rnSWCQlwUZsOfia6lN0-8" value="" style="endArrow=none;html=1;rounded=0;" parent="1" target="0rnSWCQlwUZsOfia6lN0-5" edge="1">
          <mxGeometry relative="1" as="geometry">
            <mxPoint x="320" y="380" as="sourcePoint" />
            <mxPoint x="480" y="380" as="targetPoint" />
          </mxGeometry>
        </mxCell>
        <mxCell id="0rnSWCQlwUZsOfia6lN0-9" value="" style="endArrow=none;html=1;rounded=0;entryX=1;entryY=0;entryDx=0;entryDy=0;exitX=0.462;exitY=0.989;exitDx=0;exitDy=0;exitPerimeter=0;" parent="1" edge="1">
          <mxGeometry width="50" height="50" relative="1" as="geometry">
            <mxPoint x="321.98" y="380.05999999999995" as="sourcePoint" />
            <mxPoint x="490" y="380" as="targetPoint" />
            <Array as="points">
              <mxPoint x="320" y="380" />
            </Array>
          </mxGeometry>
        </mxCell>
        <mxCell id="0rnSWCQlwUZsOfia6lN0-10" value="Gasto en medicamento" style="text;whiteSpace=wrap;html=1;align=center;" parent="1" vertex="1">
          <mxGeometry x="320" y="350" width="170" height="20" as="geometry" />
        </mxCell>
        <mxCell id="0rnSWCQlwUZsOfia6lN0-11" value="Volumen de fluido" style="text;whiteSpace=wrap;html=1;" parent="1" vertex="1">
          <mxGeometry x="320" y="430" width="170" height="20" as="geometry" />
        </mxCell>
        <mxCell id="0rnSWCQlwUZsOfia6lN0-13" value="" style="rounded=1;whiteSpace=wrap;html=1;arcSize=50;rotation=90;" parent="1" vertex="1">
          <mxGeometry x="20" y="375" width="70" height="30" as="geometry" />
        </mxCell>
        <mxCell id="0rnSWCQlwUZsOfia6lN0-14" value="Tiempo" style="text;strokeColor=none;fillColor=none;align=center;verticalAlign=middle;spacingLeft=4;spacingRight=4;overflow=hidden;points=[[0,0.5],[1,0.5]];portConstraint=eastwest;rotatable=0;whiteSpace=wrap;html=1;direction=north;textDirection=vertical-lr;" parent="1" vertex="1">
          <mxGeometry x="35" y="320" width="30" height="70" as="geometry" />
        </mxCell>
        <mxCell id="0rnSWCQlwUZsOfia6lN0-19" value="Hospital" style="swimlane;fontStyle=0;childLayout=stackLayout;horizontal=1;startSize=30;horizontalStack=0;resizeParent=1;resizeParentMax=0;resizeLast=0;collapsible=1;marginBottom=0;whiteSpace=wrap;html=1;" parent="1" vertex="1">
          <mxGeometry x="320" y="580" width="140" height="80" as="geometry" />
        </mxCell>
        <mxCell id="0rnSWCQlwUZsOfia6lN0-20" value="&lt;u&gt;HospitalID&lt;/u&gt;" style="text;strokeColor=none;fillColor=none;align=left;verticalAlign=middle;spacingLeft=4;spacingRight=4;overflow=hidden;points=[[0,0.5],[1,0.5]];portConstraint=eastwest;rotatable=0;whiteSpace=wrap;html=1;" parent="0rnSWCQlwUZsOfia6lN0-19" vertex="1">
          <mxGeometry y="30" width="140" height="30" as="geometry" />
        </mxCell>
        <mxCell id="0rnSWCQlwUZsOfia6lN0-23" value="Numero de camas" style="text;whiteSpace=wrap;html=1;" parent="0rnSWCQlwUZsOfia6lN0-19" vertex="1">
          <mxGeometry y="60" width="140" height="20" as="geometry" />
        </mxCell>
        <mxCell id="0rnSWCQlwUZsOfia6lN0-22" value="" style="edgeStyle=entityRelationEdgeStyle;fontSize=12;html=1;endArrow=ERmany;rounded=0;exitX=1;exitY=0.25;exitDx=0;exitDy=0;" parent="1" source="0rnSWCQlwUZsOfia6lN0-19" edge="1">
          <mxGeometry width="100" height="100" relative="1" as="geometry">
            <mxPoint x="580" y="620" as="sourcePoint" />
            <mxPoint x="310" y="440" as="targetPoint" />
            <Array as="points">
              <mxPoint x="680" y="460" />
              <mxPoint x="480" y="540" />
              <mxPoint x="580" y="550" />
              <mxPoint x="850" y="550" />
            </Array>
          </mxGeometry>
        </mxCell>
        <mxCell id="0rnSWCQlwUZsOfia6lN0-24" value="Región" style="swimlane;fontStyle=0;childLayout=stackLayout;horizontal=1;startSize=30;horizontalStack=0;resizeParent=1;resizeParentMax=0;resizeLast=0;collapsible=1;marginBottom=0;whiteSpace=wrap;html=1;" parent="1" vertex="1">
          <mxGeometry x="320" y="770" width="140" height="60" as="geometry" />
        </mxCell>
        <mxCell id="0rnSWCQlwUZsOfia6lN0-25" value="&lt;u&gt;RegiónID&lt;/u&gt;" style="text;strokeColor=none;fillColor=none;align=left;verticalAlign=middle;spacingLeft=4;spacingRight=4;overflow=hidden;points=[[0,0.5],[1,0.5]];portConstraint=eastwest;rotatable=0;whiteSpace=wrap;html=1;" parent="0rnSWCQlwUZsOfia6lN0-24" vertex="1">
          <mxGeometry y="30" width="140" height="30" as="geometry" />
        </mxCell>
        <mxCell id="0rnSWCQlwUZsOfia6lN0-27" value="" style="edgeStyle=entityRelationEdgeStyle;fontSize=12;html=1;endArrow=ERmany;rounded=0;entryX=1;entryY=0.5;entryDx=0;entryDy=0;" parent="1" source="0rnSWCQlwUZsOfia6lN0-24" edge="1">
          <mxGeometry width="100" height="100" relative="1" as="geometry">
            <mxPoint x="285" y="790" as="sourcePoint" />
            <mxPoint x="285" y="615" as="targetPoint" />
            <Array as="points">
              <mxPoint x="85" y="560" />
              <mxPoint x="-115" y="640" />
              <mxPoint x="-15" y="650" />
              <mxPoint x="255" y="650" />
            </Array>
          </mxGeometry>
        </mxCell>
        <mxCell id="0rnSWCQlwUZsOfia6lN0-28" value="" style="edgeStyle=entityRelationEdgeStyle;fontSize=12;html=1;endArrow=ERmany;rounded=0;" parent="1" edge="1">
          <mxGeometry width="100" height="100" relative="1" as="geometry">
            <mxPoint x="210" y="380" as="sourcePoint" />
            <mxPoint x="320" y="381" as="targetPoint" />
            <Array as="points">
              <mxPoint x="270" y="530" />
              <mxPoint x="270" y="380" />
              <mxPoint x="280" y="490" />
            </Array>
          </mxGeometry>
        </mxCell>
        <mxCell id="0rnSWCQlwUZsOfia6lN0-30" value="" style="rounded=1;whiteSpace=wrap;html=1;arcSize=50;rotation=90;" parent="1" vertex="1">
          <mxGeometry x="255" y="605" width="90" height="30" as="geometry" />
        </mxCell>
        <mxCell id="0rnSWCQlwUZsOfia6lN0-31" value="Localización" style="text;whiteSpace=wrap;html=1;rotation=90;" parent="1" vertex="1">
          <mxGeometry x="265" y="615" width="80" height="20" as="geometry" />
        </mxCell>
        <mxCell id="0rnSWCQlwUZsOfia6lN0-33" value="Medicamento" style="swimlane;fontStyle=0;childLayout=stackLayout;horizontal=1;startSize=30;horizontalStack=0;resizeParent=1;resizeParentMax=0;resizeLast=0;collapsible=1;marginBottom=0;whiteSpace=wrap;html=1;" parent="1" vertex="1">
          <mxGeometry x="590" y="690" width="140" height="60" as="geometry" />
        </mxCell>
        <mxCell id="0rnSWCQlwUZsOfia6lN0-34" value="&lt;u&gt;MedicamentoID&lt;/u&gt;" style="text;strokeColor=none;fillColor=none;align=left;verticalAlign=middle;spacingLeft=4;spacingRight=4;overflow=hidden;points=[[0,0.5],[1,0.5]];portConstraint=eastwest;rotatable=0;whiteSpace=wrap;html=1;" parent="0rnSWCQlwUZsOfia6lN0-33" vertex="1">
          <mxGeometry y="30" width="140" height="30" as="geometry" />
        </mxCell>
        <mxCell id="0rnSWCQlwUZsOfia6lN0-35" value="IngresoUCI" style="swimlane;fontStyle=0;childLayout=stackLayout;horizontal=1;startSize=30;horizontalStack=0;resizeParent=1;resizeParentMax=0;resizeLast=0;collapsible=1;marginBottom=0;whiteSpace=wrap;html=1;" parent="1" vertex="1">
          <mxGeometry x="580" y="285" width="140" height="140" as="geometry" />
        </mxCell>
        <mxCell id="0rnSWCQlwUZsOfia6lN0-36" value="&lt;u&gt;IngresoUCIID&lt;/u&gt;" style="text;strokeColor=none;fillColor=none;align=left;verticalAlign=middle;spacingLeft=4;spacingRight=4;overflow=hidden;points=[[0,0.5],[1,0.5]];portConstraint=eastwest;rotatable=0;whiteSpace=wrap;html=1;" parent="0rnSWCQlwUZsOfia6lN0-35" vertex="1">
          <mxGeometry y="30" width="140" height="30" as="geometry" />
        </mxCell>
        <mxCell id="0rnSWCQlwUZsOfia6lN0-48" value="Tipo de unidad" style="text;whiteSpace=wrap;html=1;" parent="0rnSWCQlwUZsOfia6lN0-35" vertex="1">
          <mxGeometry y="60" width="140" height="20" as="geometry" />
        </mxCell>
        <mxCell id="0rnSWCQlwUZsOfia6lN0-50" value="Peso de admison" style="text;whiteSpace=wrap;html=1;" parent="0rnSWCQlwUZsOfia6lN0-35" vertex="1">
          <mxGeometry y="80" width="140" height="20" as="geometry" />
        </mxCell>
        <mxCell id="0rnSWCQlwUZsOfia6lN0-51" value="Altura de admision" style="text;whiteSpace=wrap;html=1;" parent="0rnSWCQlwUZsOfia6lN0-35" vertex="1">
          <mxGeometry y="100" width="140" height="20" as="geometry" />
        </mxCell>
        <mxCell id="0rnSWCQlwUZsOfia6lN0-72" value="Edad de admision" style="text;whiteSpace=wrap;html=1;" parent="0rnSWCQlwUZsOfia6lN0-35" vertex="1">
          <mxGeometry y="120" width="140" height="20" as="geometry" />
        </mxCell>
        <mxCell id="0rnSWCQlwUZsOfia6lN0-37" value="Estancia Hospital" style="swimlane;fontStyle=0;childLayout=stackLayout;horizontal=1;startSize=30;horizontalStack=0;resizeParent=1;resizeParentMax=0;resizeLast=0;collapsible=1;marginBottom=0;whiteSpace=wrap;html=1;" parent="1" vertex="1">
          <mxGeometry x="840" y="290" width="140" height="100" as="geometry" />
        </mxCell>
        <mxCell id="0rnSWCQlwUZsOfia6lN0-38" value="&lt;u&gt;EstanciaHospitalID&lt;/u&gt;" style="text;strokeColor=none;fillColor=none;align=left;verticalAlign=middle;spacingLeft=4;spacingRight=4;overflow=hidden;points=[[0,0.5],[1,0.5]];portConstraint=eastwest;rotatable=0;whiteSpace=wrap;html=1;" parent="0rnSWCQlwUZsOfia6lN0-37" vertex="1">
          <mxGeometry y="30" width="140" height="30" as="geometry" />
        </mxCell>
        <mxCell id="0rnSWCQlwUZsOfia6lN0-53" value="Fuente de admision" style="text;whiteSpace=wrap;html=1;" parent="0rnSWCQlwUZsOfia6lN0-37" vertex="1">
          <mxGeometry y="60" width="140" height="20" as="geometry" />
        </mxCell>
        <mxCell id="0rnSWCQlwUZsOfia6lN0-52" value="Estado alta hospitalaria" style="text;whiteSpace=wrap;html=1;" parent="0rnSWCQlwUZsOfia6lN0-37" vertex="1">
          <mxGeometry y="80" width="140" height="20" as="geometry" />
        </mxCell>
        <mxCell id="0rnSWCQlwUZsOfia6lN0-41" value="Estancia" style="text;whiteSpace=wrap;html=1;rotation=90;" parent="1" vertex="1">
          <mxGeometry x="700" y="370" width="80" height="20" as="geometry" />
        </mxCell>
        <mxCell id="0rnSWCQlwUZsOfia6lN0-45" value="" style="edgeStyle=entityRelationEdgeStyle;fontSize=12;html=1;endArrow=ERmany;rounded=0;exitX=-0.014;exitY=0.383;exitDx=0;exitDy=0;exitPerimeter=0;entryX=0;entryY=0;entryDx=60;entryDy=0;entryPerimeter=0;" parent="1" source="0rnSWCQlwUZsOfia6lN0-35" target="0rnSWCQlwUZsOfia6lN0-5" edge="1">
          <mxGeometry width="100" height="100" relative="1" as="geometry">
            <mxPoint x="360" y="530" as="sourcePoint" />
            <mxPoint x="460" y="430" as="targetPoint" />
          </mxGeometry>
        </mxCell>
        <mxCell id="0rnSWCQlwUZsOfia6lN0-46" value="" style="edgeStyle=entityRelationEdgeStyle;fontSize=12;html=1;endArrow=ERmany;rounded=0;exitX=0;exitY=0.5;exitDx=0;exitDy=0;entryX=0.554;entryY=-0.022;entryDx=0;entryDy=0;entryPerimeter=0;" parent="1" source="0rnSWCQlwUZsOfia6lN0-33" target="0rnSWCQlwUZsOfia6lN0-5" edge="1">
          <mxGeometry width="100" height="100" relative="1" as="geometry">
            <mxPoint x="588" y="323" as="sourcePoint" />
            <mxPoint x="510" y="400" as="targetPoint" />
          </mxGeometry>
        </mxCell>
        <mxCell id="0rnSWCQlwUZsOfia6lN0-47" value="" style="edgeStyle=entityRelationEdgeStyle;fontSize=12;html=1;endArrow=ERmany;rounded=0;exitX=0;exitY=0.25;exitDx=0;exitDy=0;entryX=0.5;entryY=0;entryDx=0;entryDy=0;" parent="1" source="0rnSWCQlwUZsOfia6lN0-37" target="0rnSWCQlwUZsOfia6lN0-41" edge="1">
          <mxGeometry width="100" height="100" relative="1" as="geometry">
            <mxPoint x="620" y="460" as="sourcePoint" />
            <mxPoint x="680" y="390" as="targetPoint" />
          </mxGeometry>
        </mxCell>
        <mxCell id="0rnSWCQlwUZsOfia6lN0-54" value="Alergia" style="swimlane;fontStyle=0;childLayout=stackLayout;horizontal=1;startSize=30;horizontalStack=0;resizeParent=1;resizeParentMax=0;resizeLast=0;collapsible=1;marginBottom=0;whiteSpace=wrap;html=1;" parent="1" vertex="1">
          <mxGeometry x="65" y="140" width="140" height="120" as="geometry" />
        </mxCell>
        <mxCell id="0rnSWCQlwUZsOfia6lN0-55" value="&lt;u&gt;AlergiaID&lt;/u&gt;" style="text;strokeColor=none;fillColor=none;align=left;verticalAlign=middle;spacingLeft=4;spacingRight=4;overflow=hidden;points=[[0,0.5],[1,0.5]];portConstraint=eastwest;rotatable=0;whiteSpace=wrap;html=1;" parent="0rnSWCQlwUZsOfia6lN0-54" vertex="1">
          <mxGeometry y="30" width="140" height="30" as="geometry" />
        </mxCell>
        <mxCell id="0rnSWCQlwUZsOfia6lN0-57" value="Nombre alergia" style="text;whiteSpace=wrap;html=1;" parent="0rnSWCQlwUZsOfia6lN0-54" vertex="1">
          <mxGeometry y="60" width="140" height="20" as="geometry" />
        </mxCell>
        <mxCell id="0rnSWCQlwUZsOfia6lN0-58" value="Tipo Alergia" style="text;whiteSpace=wrap;html=1;" parent="0rnSWCQlwUZsOfia6lN0-54" vertex="1">
          <mxGeometry y="80" width="140" height="20" as="geometry" />
        </mxCell>
        <mxCell id="0rnSWCQlwUZsOfia6lN0-59" value="Nombre medicamento" style="text;whiteSpace=wrap;html=1;" parent="0rnSWCQlwUZsOfia6lN0-54" vertex="1">
          <mxGeometry y="100" width="140" height="20" as="geometry" />
        </mxCell>
        <mxCell id="0rnSWCQlwUZsOfia6lN0-60" value="Tratamiento" style="swimlane;fontStyle=0;childLayout=stackLayout;horizontal=1;startSize=30;horizontalStack=0;resizeParent=1;resizeParentMax=0;resizeLast=0;collapsible=1;marginBottom=0;whiteSpace=wrap;html=1;" parent="1" vertex="1">
          <mxGeometry x="585" y="120" width="140" height="80" as="geometry" />
        </mxCell>
        <mxCell id="0rnSWCQlwUZsOfia6lN0-61" value="&lt;u style=&quot;background-color: initial;&quot;&gt;TratamientoID&lt;/u&gt;" style="text;strokeColor=none;fillColor=none;align=left;verticalAlign=middle;spacingLeft=4;spacingRight=4;overflow=hidden;points=[[0,0.5],[1,0.5]];portConstraint=eastwest;rotatable=0;whiteSpace=wrap;html=1;" parent="0rnSWCQlwUZsOfia6lN0-60" vertex="1">
          <mxGeometry y="30" width="140" height="30" as="geometry" />
        </mxCell>
        <mxCell id="0rnSWCQlwUZsOfia6lN0-62" value="Descripción" style="text;whiteSpace=wrap;html=1;" parent="0rnSWCQlwUZsOfia6lN0-60" vertex="1">
          <mxGeometry y="60" width="140" height="20" as="geometry" />
        </mxCell>
        <mxCell id="0rnSWCQlwUZsOfia6lN0-66" value="" style="rounded=1;whiteSpace=wrap;html=1;arcSize=50;rotation=0;verticalAlign=bottom;" parent="1" vertex="1">
          <mxGeometry x="580" y="90" width="145" height="30" as="geometry" />
        </mxCell>
        <mxCell id="0rnSWCQlwUZsOfia6lN0-67" value="" style="rounded=1;whiteSpace=wrap;html=1;arcSize=50;rotation=0;verticalAlign=bottom;" parent="1" vertex="1">
          <mxGeometry x="65" y="110" width="145" height="30" as="geometry" />
        </mxCell>
        <mxCell id="0rnSWCQlwUZsOfia6lN0-68" value="Tratamiento" style="text;whiteSpace=wrap;html=1;rotation=0;" parent="1" vertex="1">
          <mxGeometry x="620" y="90" width="80" height="20" as="geometry" />
        </mxCell>
        <mxCell id="0rnSWCQlwUZsOfia6lN0-69" value="Alergia" style="text;whiteSpace=wrap;html=1;rotation=0;" parent="1" vertex="1">
          <mxGeometry x="115" y="110" width="80" height="20" as="geometry" />
        </mxCell>
        <mxCell id="bctwhJUAPt9a3tQ_kbxR-13" value="Paciente" style="swimlane;fontStyle=0;childLayout=stackLayout;horizontal=1;startSize=30;horizontalStack=0;resizeParent=1;resizeParentMax=0;resizeLast=0;collapsible=1;marginBottom=0;whiteSpace=wrap;html=1;" parent="1" vertex="1">
          <mxGeometry x="330" y="120" width="155" height="100" as="geometry" />
        </mxCell>
        <mxCell id="bctwhJUAPt9a3tQ_kbxR-14" value="&lt;u&gt;UniquePID&lt;/u&gt;" style="text;strokeColor=none;fillColor=none;align=left;verticalAlign=middle;spacingLeft=4;spacingRight=4;overflow=hidden;points=[[0,0.5],[1,0.5]];portConstraint=eastwest;rotatable=0;whiteSpace=wrap;html=1;" parent="bctwhJUAPt9a3tQ_kbxR-13" vertex="1">
          <mxGeometry y="30" width="155" height="30" as="geometry" />
        </mxCell>
        <mxCell id="bctwhJUAPt9a3tQ_kbxR-15" value="Género" style="text;whiteSpace=wrap;html=1;" parent="bctwhJUAPt9a3tQ_kbxR-13" vertex="1">
          <mxGeometry y="60" width="155" height="20" as="geometry" />
        </mxCell>
        <mxCell id="bctwhJUAPt9a3tQ_kbxR-19" style="edgeStyle=orthogonalEdgeStyle;rounded=0;orthogonalLoop=1;jettySize=auto;html=1;endArrow=ERmany;endFill=0;" parent="bctwhJUAPt9a3tQ_kbxR-13" source="bctwhJUAPt9a3tQ_kbxR-18" edge="1">
          <mxGeometry relative="1" as="geometry">
            <mxPoint x="77.5" y="210" as="targetPoint" />
          </mxGeometry>
        </mxCell>
        <mxCell id="bctwhJUAPt9a3tQ_kbxR-18" value="Etnia" style="text;whiteSpace=wrap;html=1;" parent="bctwhJUAPt9a3tQ_kbxR-13" vertex="1">
          <mxGeometry y="80" width="155" height="20" as="geometry" />
        </mxCell>
        <mxCell id="bctwhJUAPt9a3tQ_kbxR-16" value="" style="rounded=1;whiteSpace=wrap;html=1;arcSize=50;rotation=0;verticalAlign=bottom;" parent="1" vertex="1">
          <mxGeometry x="327.5" y="90" width="160" height="30" as="geometry" />
        </mxCell>
        <mxCell id="bctwhJUAPt9a3tQ_kbxR-17" value="Paciente" style="text;whiteSpace=wrap;html=1;rotation=0;" parent="1" vertex="1">
          <mxGeometry x="374" y="95" width="80" height="20" as="geometry" />
        </mxCell>
        <mxCell id="S7K0g6uUdNNvXftOYRjb-1" value="" style="edgeStyle=entityRelationEdgeStyle;fontSize=12;html=1;endArrow=ERmany;startArrow=ERmany;rounded=0;entryX=0.991;entryY=0.07;entryDx=0;entryDy=0;entryPerimeter=0;" parent="1" source="0rnSWCQlwUZsOfia6lN0-5" target="0rnSWCQlwUZsOfia6lN0-54" edge="1">
          <mxGeometry width="100" height="100" relative="1" as="geometry">
            <mxPoint x="115" y="377.5" as="sourcePoint" />
            <mxPoint x="215" y="277.5" as="targetPoint" />
            <Array as="points">
              <mxPoint x="270" y="300" />
            </Array>
          </mxGeometry>
        </mxCell>
        <mxCell id="S7K0g6uUdNNvXftOYRjb-2" value="" style="edgeStyle=entityRelationEdgeStyle;fontSize=12;html=1;endArrow=ERmany;startArrow=ERmany;rounded=0;entryX=0;entryY=0.25;entryDx=0;entryDy=0;exitX=0.289;exitY=-0.017;exitDx=0;exitDy=0;exitPerimeter=0;" parent="1" source="0rnSWCQlwUZsOfia6lN0-5" target="0rnSWCQlwUZsOfia6lN0-60" edge="1">
          <mxGeometry width="100" height="100" relative="1" as="geometry">
            <mxPoint x="330" y="405" as="sourcePoint" />
            <mxPoint x="214" y="158" as="targetPoint" />
            <Array as="points">
              <mxPoint x="280" y="310" />
            </Array>
          </mxGeometry>
        </mxCell>
      </root>
    </mxGraphModel>
  </diagram>
</mxfile>
